<svg width="18" height="14" viewBox="0 0 18 14" fill="none" xmlns="http://www.w3.org/2000/svg">
<path fill-rule="evenodd" clip-rule="evenodd" d="M12.3932 1.99967C13.0101 1.99967 13.5487 1.66451 13.8369 1.16634H15.7266C16.1868 1.16634 16.5599 1.53944 16.5599 1.99967V3.77136C15.1222 4.14139 14.0599 5.44651 14.0599 6.99967C14.0599 8.55284 15.1222 9.85792 16.5599 10.228V11.9997C16.5599 12.4599 16.1868 12.833 15.7266 12.833H13.8369C13.5487 12.3348 13.0101 11.9997 12.3932 11.9997C11.7763 11.9997 11.2377 12.3348 10.9496 12.833H2.39323C1.933 12.833 1.5599 12.4599 1.5599 11.9997V10.228C2.99759 9.85792 4.0599 8.55284 4.0599 6.99967C4.0599 5.44651 2.99759 4.14139 1.5599 3.77136V1.99967C1.5599 1.53944 1.933 1.16634 2.39323 1.16634H10.9496C11.2377 1.66451 11.7763 1.99967 12.3932 1.99967ZM14.8932 6.99967C14.8932 5.61892 16.0125 4.49967 17.3932 4.49967V1.99967C17.3932 1.0792 16.6471 0.333008 15.7266 0.333008H13.2266C13.2266 0.793241 12.8535 1.16634 12.3932 1.16634C11.933 1.16634 11.5599 0.793241 11.5599 0.333008H2.39323C1.47275 0.333008 0.726562 1.0792 0.726562 1.99967V4.49967C2.10727 4.49967 3.22656 5.61892 3.22656 6.99967C3.22656 8.38042 2.10727 9.49967 0.726562 9.49967V11.9997C0.726562 12.9202 1.47275 13.6663 2.39323 13.6663H11.5599C11.5599 13.2061 11.933 12.833 12.3932 12.833C12.8535 12.833 13.2266 13.2061 13.2266 13.6663H15.7266C16.6471 13.6663 17.3932 12.9202 17.3932 11.9997V9.49967C16.0125 9.49967 14.8932 8.38042 14.8932 6.99967ZM12.3932 4.49967C12.8535 4.49967 13.2266 4.12658 13.2266 3.66634C13.2266 3.20611 12.8535 2.83301 12.3932 2.83301C11.933 2.83301 11.5599 3.20611 11.5599 3.66634C11.5599 4.12658 11.933 4.49967 12.3932 4.49967ZM12.3932 7.83301C12.8535 7.83301 13.2266 7.45992 13.2266 6.99967C13.2266 6.53942 12.8535 6.16634 12.3932 6.16634C11.933 6.16634 11.5599 6.53942 11.5599 6.99967C11.5599 7.45992 11.933 7.83301 12.3932 7.83301ZM13.2266 10.333C13.2266 10.7933 12.8535 11.1663 12.3932 11.1663C11.933 11.1663 11.5599 10.7933 11.5599 10.333C11.5599 9.87276 11.933 9.49967 12.3932 9.49967C12.8535 9.49967 13.2266 9.87276 13.2266 10.333Z" fill="#707070"/>
</svg>
